<svg width="24" height="24" viewBox="0 0 24 24" fill="none" xmlns="http://www.w3.org/2000/svg">
  <path d="M12 15.25C13.7949 15.25 15.25 13.7949 15.25 12C15.25 10.2051 13.7949 8.75 12 8.75C10.2051 8.75 8.75 10.2051 8.75 12C8.75 13.7949 10.2051 15.25 12 15.25Z" stroke="#F1F8FF" stroke-width="2.1"/>
  <path d="M19.35 13.55C19.43 13.05 19.48 12.53 19.48 12C19.48 11.47 19.43 10.95 19.35 10.45L21.08 9.1L19.26 5.95L17.22 6.77C16.41 6.11 15.49 5.57 14.49 5.2L14.18 3H9.82L9.51 5.2C8.51 5.57 7.59 6.11 6.78 6.77L4.74 5.95L2.92 9.1L4.65 10.45C4.57 10.95 4.52 11.47 4.52 12C4.52 12.53 4.57 13.05 4.65 13.55L2.92 14.9L4.74 18.05L6.78 17.23C7.59 17.89 8.51 18.43 9.51 18.8L9.82 21H14.18L14.49 18.8C15.49 18.43 16.41 17.89 17.22 17.23L19.26 18.05L21.08 14.9L19.35 13.55Z" stroke="#F1F8FF" stroke-width="2.1" stroke-linejoin="round"/>
</svg>
